# Blender v2.78 (sub 0) OBJ File: ''
# www.blender.org
mtllib test.mtl
o Cube
v 2.838067 0.046728 -0.760000
v 2.838067 0.046728 0.760000
v 2.058066 0.046728 0.760000
v 2.058066 0.046728 -0.760001
v 2.838067 2.886728 -0.760000
v 2.838067 2.886728 0.760001
v 2.058065 2.886728 0.760000
v 2.058066 2.886728 -0.760000
vn 0.0000 -1.0000 0.0000
vn 0.0000 1.0000 0.0000
vn 1.0000 0.0000 0.0000
vn -0.0000 -0.0000 1.0000
vn -1.0000 -0.0000 -0.0000
vn 0.0000 0.0000 -1.0000
usemtl Material
s off
f 2//1 4//1 1//1
f 5//2 7//2 6//2
f 5//3 2//3 1//3
f 6//4 3//4 2//4
f 7//5 4//5 3//5
f 1//6 8//6 5//6
f 2//1 3//1 4//1
f 5//2 8//2 7//2
f 5//3 6//3 2//3
f 6//4 7//4 3//4
f 7//5 8//5 4//5
f 1//6 4//6 8//6
o Cube.001
v -2.089860 0.046728 -0.760000
v -2.089860 0.046728 0.760000
v -2.869861 0.046728 0.760000
v -2.869861 0.046728 -0.760001
v -2.089860 2.886728 -0.760000
v -2.089860 2.886728 0.760001
v -2.869861 2.886728 0.760000
v -2.869861 2.886728 -0.760000
vn 0.0000 -1.0000 0.0000
vn 0.0000 1.0000 0.0000
vn 1.0000 -0.0000 0.0000
vn -0.0000 -0.0000 1.0000
vn -1.0000 0.0000 -0.0000
vn 0.0000 0.0000 -1.0000
usemtl Material.001
s off
f 10//7 12//7 9//7
f 13//8 15//8 14//8
f 13//9 10//9 9//9
f 14//10 11//10 10//10
f 15//11 12//11 11//11
f 9//12 16//12 13//12
f 10//7 11//7 12//7
f 13//8 16//8 15//8
f 13//9 14//9 10//9
f 14//10 15//10 11//10
f 15//11 16//11 12//11
f 9//12 12//12 16//12
o Cube.002
v -0.803929 0.046728 -2.878016
v 0.716071 0.046728 -2.878016
v 0.716071 0.046728 -2.098015
v -0.803929 0.046728 -2.098015
v -0.803929 2.886728 -2.878016
v 0.716072 2.886728 -2.878016
v 0.716071 2.886728 -2.098015
v -0.803929 2.886728 -2.098015
vn 0.0000 -1.0000 -0.0000
vn 0.0000 1.0000 0.0000
vn 0.0000 -0.0000 -1.0000
vn 1.0000 -0.0000 0.0000
vn -0.0000 -0.0000 1.0000
vn -1.0000 0.0000 -0.0000
usemtl Material.002
s off
f 18//13 20//13 17//13
f 21//14 23//14 22//14
f 21//15 18//15 17//15
f 22//16 19//16 18//16
f 23//17 20//17 19//17
f 17//18 24//18 21//18
f 18//13 19//13 20//13
f 21//14 24//14 23//14
f 21//15 22//15 18//15
f 22//16 23//16 19//16
f 23//17 24//17 20//17
f 17//18 20//18 24//18
o Cube.003
v -0.804193 0.046728 2.140826
v 0.715807 0.046728 2.140826
v 0.715807 0.046728 2.920828
v -0.804193 0.046728 2.920827
v -0.804193 2.886728 2.140826
v 0.715808 2.886728 2.140827
v 0.715807 2.886728 2.920828
v -0.804193 2.886728 2.920828
vn 0.0000 -1.0000 -0.0000
vn 0.0000 1.0000 0.0000
vn 0.0000 -0.0000 -1.0000
vn 1.0000 -0.0000 0.0000
vn -0.0000 -0.0000 1.0000
vn -1.0000 0.0000 -0.0000
usemtl Material.003
s off
f 26//19 28//19 25//19
f 29//20 31//20 30//20
f 29//21 26//21 25//21
f 30//22 27//22 26//22
f 31//23 28//23 27//23
f 25//24 32//24 29//24
f 26//19 27//19 28//19
f 29//20 32//20 31//20
f 29//21 30//21 26//21
f 30//22 31//22 27//22
f 31//23 32//23 28//23
f 25//24 28//24 32//24
o Cube.004
v 1.527824 0.046728 -2.635784
v 2.602627 0.046728 -1.560982
v 2.051083 0.046728 -1.009438
v 0.976280 0.046728 -2.084240
v 1.527825 2.886728 -2.635784
v 2.602627 2.886728 -1.560981
v 2.051083 2.886728 -1.009438
v 0.976280 2.886728 -2.084240
vn 0.0000 -1.0000 0.0000
vn 0.0000 1.0000 -0.0000
vn 0.7071 0.0000 -0.7071
vn 0.7071 -0.0000 0.7071
vn -0.7071 0.0000 0.7071
vn -0.7071 0.0000 -0.7071
usemtl Material.004
s off
f 33//25 35//25 36//25
f 37//26 39//26 38//26
f 37//27 34//27 33//27
f 38//28 35//28 34//28
f 39//29 36//29 35//29
f 33//30 40//30 37//30
f 33//25 34//25 35//25
f 37//26 40//26 39//26
f 37//27 38//27 34//27
f 38//28 39//28 35//28
f 39//29 40//29 36//29
f 33//30 36//30 40//30
o Cube.005
v -2.123259 0.046728 1.013852
v -1.048457 0.046728 2.088655
v -1.600001 0.046728 2.640199
v -2.674803 0.046728 1.565396
v -2.123259 2.886728 1.013852
v -1.048457 2.886728 2.088655
v -1.600001 2.886728 2.640199
v -2.674803 2.886728 1.565396
vn 0.0000 -1.0000 0.0000
vn 0.0000 1.0000 0.0000
vn 0.7071 -0.0000 -0.7071
vn 0.7071 -0.0000 0.7071
vn -0.7071 0.0000 0.7071
vn -0.7071 0.0000 -0.7071
usemtl Material.005
s off
f 42//31 44//31 41//31
f 45//32 47//32 46//32
f 45//33 42//33 41//33
f 46//34 43//34 42//34
f 47//35 44//35 43//35
f 41//36 48//36 45//36
f 42//31 43//31 44//31
f 45//32 48//32 47//32
f 45//33 46//33 42//33
f 46//34 47//34 43//34
f 47//35 48//35 44//35
f 41//36 44//36 48//36
o Cube.006
v 2.598045 0.046728 1.591218
v 1.523243 0.046728 2.666021
v 0.971699 0.046728 2.114477
v 2.046501 0.046728 1.039674
v 2.598045 2.886728 1.591219
v 1.523242 2.886728 2.666021
v 0.971699 2.886728 2.114476
v 2.046501 2.886728 1.039674
vn 0.0000 -1.0000 0.0000
vn 0.0000 1.0000 -0.0000
vn 0.7071 0.0000 0.7071
vn -0.7071 -0.0000 0.7071
vn -0.7071 -0.0000 -0.7071
vn 0.7071 0.0000 -0.7071
usemtl Material.006
s off
f 49//37 51//37 52//37
f 53//38 55//38 54//38
f 53//39 50//39 49//39
f 54//40 51//40 50//40
f 55//41 52//41 51//41
f 53//42 52//42 56//42
f 49//37 50//37 51//37
f 53//38 56//38 55//38
f 53//39 54//39 50//39
f 54//40 55//40 51//40
f 55//41 56//41 52//41
f 53//42 49//42 52//42
o Cube.007
v -1.039179 0.046728 -2.115254
v -2.113981 0.046728 -1.040451
v -2.665525 0.046728 -1.591996
v -1.590723 0.046728 -2.666798
v -1.039179 2.886728 -2.115254
v -2.113982 2.886728 -1.040451
v -2.665525 2.886728 -1.591996
v -1.590723 2.886728 -2.666798
vn 0.0000 -1.0000 0.0000
vn 0.0000 1.0000 0.0000
vn 0.7071 -0.0000 0.7071
vn -0.7071 -0.0000 0.7071
vn -0.7071 0.0000 -0.7071
vn 0.7071 0.0000 -0.7071
usemtl Material.007
s off
f 57//43 59//43 60//43
f 61//44 63//44 62//44
f 61//45 58//45 57//45
f 62//46 59//46 58//46
f 63//47 60//47 59//47
f 57//48 64//48 61//48
f 57//43 58//43 59//43
f 61//44 64//44 63//44
f 61//45 62//45 58//45
f 62//46 63//46 59//46
f 63//47 64//47 60//47
f 57//48 60//48 64//48
